<svg width="24" height="24" viewBox="0 0 24 24" fill="none" xmlns="http://www.w3.org/2000/svg">
<path d="M7.69489 8.89468L10.4464 6.14314L11.3 5.28958V6.49669V20.3999C11.3 20.5855 11.3737 20.7636 11.505 20.8949C11.6363 21.0261 11.8143 21.0999 12 21.0999C12.1856 21.0999 12.3637 21.0261 12.495 20.8949C12.6262 20.7636 12.7 20.5855 12.7 20.3999V6.49669V5.28958L13.5535 6.14314L16.3017 8.89127C16.4334 9.01713 16.6091 9.0867 16.7913 9.08512C16.9749 9.08352 17.1504 9.0099 17.2802 8.88012C17.41 8.75033 17.4836 8.57476 17.4852 8.39123C17.4868 8.20894 17.4172 8.03329 17.2914 7.90156L12.4949 3.1051C12.4949 3.10508 12.4949 3.10506 12.4948 3.10504C12.3636 2.97385 12.1856 2.90015 12 2.90015C11.8144 2.90015 11.6364 2.97385 11.5051 3.10504L11.5051 3.1051M7.69489 8.89468L11.5051 3.1051M7.69489 8.89468C7.69487 8.8947 7.69485 8.89472 7.69483 8.89474C7.56357 9.02593 7.38558 9.09963 7.19999 9.09963C7.01442 9.09963 6.83645 9.02595 6.70519 8.89479C6.57396 8.76352 6.50024 8.5855 6.50024 8.39989C6.50024 8.2143 6.57395 8.03631 6.70514 7.90504C6.70516 7.90503 6.70518 7.90501 6.70519 7.90499M7.69489 8.89468L6.70519 7.90499M11.5051 3.1051L6.70519 7.90499M11.5051 3.1051L6.70519 7.90499" fill="#3F3F46" stroke="#403FEA"/>
</svg>
