<svg width="30" height="30" viewBox="0 0 30 30" fill="none" xmlns="http://www.w3.org/2000/svg">
<rect x="0.5" y="0.5" width="29" height="29" rx="4.5" stroke="#DBDFEB"/>
<path d="M21 21L17 17M18.3333 13.6667C18.3333 14.2795 18.2126 14.8863 17.9781 15.4525C17.7436 16.0187 17.3998 16.5332 16.9665 16.9665C16.5332 17.3998 16.0187 17.7436 15.4525 17.9781C14.8863 18.2126 14.2795 18.3333 13.6667 18.3333C13.0538 18.3333 12.447 18.2126 11.8808 17.9781C11.3146 17.7436 10.8002 17.3998 10.3668 16.9665C9.93349 16.5332 9.58975 16.0187 9.35523 15.4525C9.12071 14.8863 9 14.2795 9 13.6667C9 12.429 9.49167 11.242 10.3668 10.3668C11.242 9.49167 12.429 9 13.6667 9C14.9043 9 16.0913 9.49167 16.9665 10.3668C17.8417 11.242 18.3333 12.429 18.3333 13.6667Z" stroke="#403FEA" stroke-width="2" stroke-linecap="round" stroke-linejoin="round"/>
</svg>
