<svg width="30" height="30" viewBox="0 0 30 30" fill="none" xmlns="http://www.w3.org/2000/svg">
<path fill-rule="evenodd" clip-rule="evenodd" d="M13.9395 18.4394C13.6663 18.7223 13.5151 19.1012 13.5185 19.4945C13.5219 19.8878 13.6797 20.264 13.9578 20.5421C14.2359 20.8202 14.6121 20.978 15.0054 20.9814C15.3987 20.9848 15.7776 20.8336 16.0605 20.5604L20.5605 16.0604C20.8417 15.7791 20.9997 15.3976 20.9997 14.9999C20.9997 14.6021 20.8417 14.2207 20.5605 13.9394L16.0605 9.43938C15.9221 9.29611 15.7566 9.18184 15.5736 9.10323C15.3906 9.02461 15.1938 8.98323 14.9946 8.9815C14.7954 8.97977 14.5979 9.01772 14.4136 9.09314C14.2292 9.16857 14.0617 9.27995 13.9209 9.42078C13.7801 9.56162 13.6687 9.7291 13.5933 9.91345C13.5178 10.0978 13.4799 10.2953 13.4816 10.4945C13.4834 10.6936 13.5247 10.8905 13.6033 11.0735C13.682 11.2565 13.7962 11.422 13.9395 11.5604L15.879 13.4999H4.5C4.10218 13.4999 3.72065 13.6579 3.43934 13.9392C3.15804 14.2205 3 14.6021 3 14.9999C3 15.3977 3.15804 15.7792 3.43934 16.0605C3.72065 16.3418 4.10218 16.4999 4.5 16.4999H15.879L13.9395 18.4394Z" fill="#403FEA"/>
<path fill-rule="evenodd" clip-rule="evenodd" d="M25.4995 4.5C25.8973 4.5 26.2789 4.65804 26.5602 4.93934C26.8415 5.22064 26.9995 5.60218 26.9995 6V24C26.9995 24.3978 26.8415 24.7794 26.5602 25.0607C26.2789 25.342 25.8973 25.5 25.4995 25.5C25.1017 25.5 24.7202 25.342 24.4389 25.0607C24.1575 24.7794 23.9995 24.3978 23.9995 24V6C23.9995 5.60218 24.1575 5.22064 24.4389 4.93934C24.7202 4.65804 25.1017 4.5 25.4995 4.5Z" fill="#403FEA"/>
</svg>
